<mxfile host="app.diagrams.net" modified="2023-04-26T19:41:15.519Z" agent="Mozilla/5.0 (Macintosh; Intel Mac OS X 10_12_6) AppleWebKit/537.36 (KHTML, like Gecko) Chrome/103.0.0.0 Safari/537.36" version="21.1.8" etag="FUm2lT_MES5vscGAt4OC" type="github">
  <diagram name="Страница 1" id="pyZXf6aTFO2wQ4nWyRsj">
    <mxGraphModel>
      <root>
        <mxCell id="0" />
        <mxCell id="1" parent="0" />
      </root>
    </mxGraphModel>
  </diagram>
</mxfile>
